HIERARCHY
ROOT RootJoint
{
    OFFSET   0.000000   0.000000   0.000000
    CHANNELS 6 Xposition Yposition Zposition Xrotation Yrotation Zrotation
    JOINT pelvis_lowerback
    {
        OFFSET   0.000000   0.093605   0.000000
        CHANNELS 3 Xrotation Yrotation Zrotation
        JOINT lowerback_torso
        {
            OFFSET   0.000000   0.100000   0.000000
            CHANNELS 3 Xrotation Yrotation Zrotation
            JOINT torso_head
            {
                OFFSET   0.000000   0.282350   0.000000
                CHANNELS 3 Xrotation Yrotation Zrotation
                End Site
                {
                    OFFSET   0.000000   0.192650   0.000000
                }
            }
            JOINT rTorso_Clavicle
            {
                OFFSET  -0.001000   0.157500   0.000000
                CHANNELS 3 Xrotation Yrotation Zrotation
                JOINT rShoulder
                {
                    OFFSET  -0.117647   0.000000   0.000000
                    CHANNELS 3 Xrotation Yrotation Zrotation
                    JOINT rElbow
                    {
                        OFFSET  -0.245000   0.000000   0.000000
                        CHANNELS 3 Xrotation Yrotation Zrotation
                        JOINT rWrist
                        {
                            OFFSET  -0.240000   0.000000   0.000000
                            CHANNELS 3 Xrotation Yrotation Zrotation
                            End Site
                            {
                                OFFSET  -0.116353  -0.002500   0.000000
                            }
                        }
                    }
                }
            }
            JOINT lTorso_Clavicle
            {
                OFFSET   0.001000   0.157500   0.000000
                CHANNELS 3 Xrotation Yrotation Zrotation
                JOINT lShoulder
                {
                    OFFSET   0.117647   0.000000   0.000000
                    CHANNELS 3 Xrotation Yrotation Zrotation
                    JOINT lElbow
                    {
                        OFFSET   0.245000   0.000000   0.000000
                        CHANNELS 3 Xrotation Yrotation Zrotation
                        JOINT lWrist
                        {
                            OFFSET   0.240000   0.000000   0.000000
                            CHANNELS 3 Xrotation Yrotation Zrotation
                            End Site
                            {
                                OFFSET   0.116353  -0.002500   0.000000
                            }
                        }
                    }
                }
            }
        }
    }
    JOINT rHip
    {
        OFFSET  -0.100000  -0.051395   0.000000
        CHANNELS 3 Xrotation Yrotation Zrotation
        JOINT rKnee
        {
            OFFSET   0.000000  -0.410000   0.000000
            CHANNELS 3 Xrotation Yrotation Zrotation
            JOINT rAnkle
            {
                OFFSET   0.000000  -0.390000   0.000000
                CHANNELS 3 Xrotation Yrotation Zrotation
                JOINT rToeJoint
                {
                    OFFSET   0.000000  -0.050000   0.130000
                    CHANNELS 3 Xrotation Yrotation Zrotation
                    End Site
                    {
                        OFFSET  -0.010000   0.002000   0.060000
                    }
                }
            }
        }
    }
    JOINT lHip
    {
        OFFSET   0.100000  -0.051395   0.000000
        CHANNELS 3 Xrotation Yrotation Zrotation
        JOINT lKnee
        {
            OFFSET   0.000000  -0.410000   0.000000
            CHANNELS 3 Xrotation Yrotation Zrotation
            JOINT lAnkle
            {
                OFFSET   0.000000  -0.390000   0.000000
                CHANNELS 3 Xrotation Yrotation Zrotation
                JOINT lToeJoint
                {
                    OFFSET   0.000000  -0.050000   0.130000
                    CHANNELS 3 Xrotation Yrotation Zrotation
                    End Site
                    {
                        OFFSET   0.010000   0.002000   0.060000
                    }
                }
            }
        }
    }
}
MOTION
Frames: 12
Frame Time:   0.008333
 -2.376719   0.925631   3.975860   0.000000   0.000000   0.000000   0.000000   0.000000   0.000000   0.000000   0.000000   0.000000   0.000000   0.000000   0.000000   0.000000   0.000000   0.000000   0.000000   0.000000   0.000000   0.000000   0.000000   0.000000   0.000000   0.000000   0.000000   0.000000   0.000000   0.000000   0.000000   0.000000   0.000000   0.000000   0.000000   0.000000   0.000000   0.000000   0.000000   0.000000   0.000000   0.000000   0.000000   0.000000   0.000000   0.000000   0.000000   0.000000   0.000000   0.000000   0.000000   0.000000   0.000000   0.000000   0.000000   0.000000   0.000000   0.000000   0.000000   0.000000   0.000000   0.000000   0.000000
 -2.376657   0.926029   3.976179  -0.015768   0.048368   0.017689  -0.139515  -0.058531  -0.102250   0.181161  -0.133536   0.110180  -0.088397   0.117418  -0.043177   0.308881  -0.578206   0.108966   0.626582  -0.116530   2.214809   0.075835   3.643918  -0.032459   0.188770  -1.260199  -2.873744   0.220863   0.566756  -0.054385   1.070694   0.422037  -2.218271   0.072463  -3.627494   0.043485   0.180667   1.188898   2.676554  -0.076894   0.197273  -0.184039   0.228494   0.000333   0.000489  -0.363363  -0.001751   0.036707  -0.064211  -0.000072  -0.000137  -0.084946  -0.227964   0.116198   0.671976  -0.000793  -0.001048  -0.912513   0.217433   0.160771   0.134872  -0.000345   0.000044
 -2.376563   0.926740   3.976578  -0.072359   0.076382   0.025695  -0.305853  -0.128483  -0.195232   0.360128  -0.274012   0.230970  -0.149741   0.227644  -0.085801   0.606832  -1.076072   0.890985   1.229829  -0.109038   4.965178   0.182911   7.401622  -0.056221   0.421681  -1.576790  -5.106218   0.444312   1.055274  -0.761578   2.105896   0.699980  -4.901964   0.173716  -7.360228   0.076839   0.412067   1.491533   4.707231  -0.160713   0.395254  -0.492778   0.467672   0.000900   0.000856  -0.705132  -0.002252   0.070812  -0.150790  -0.000258  -0.000281  -0.061609  -0.445795   0.355122   1.404981  -0.002249  -0.002014  -1.767728   0.421218   0.315408   0.209759  -0.000536   0.000045
 -2.376466   0.927379   3.977003  -0.136671   0.094592   0.026253  -0.488660  -0.207599  -0.276534   0.508832  -0.417352   0.346917  -0.212315   0.329937  -0.123944   0.892637  -1.482891   2.096997   1.812897  -0.024035   8.069143   0.297970  11.177619  -0.072290   0.652708  -1.616470  -6.541119   0.664063   1.445527  -1.908475   3.077494   0.861894  -7.775117   0.280038 -11.113771   0.100743   0.638464   1.517808   5.925022  -0.273436   0.579322  -0.901607   0.685526   0.001506   0.001054  -1.025069  -0.004337   0.101706  -0.238460  -0.000495  -0.000380   0.035410  -0.647435   0.694014   2.126864  -0.003992  -0.002676  -2.565427   0.610752   0.463234   0.274307  -0.000702   0.000039
 -2.376371   0.927658   3.977426  -0.200521   0.109536   0.020174  -0.678279  -0.295937  -0.346277   0.631104  -0.564788   0.462080  -0.278627   0.425226  -0.161018   1.173597  -1.823979   3.575531   2.371837   0.117019  11.352361   0.407641  14.957608  -0.082747   0.867320  -1.576512  -7.319826   0.882880   1.760819  -3.321871   3.991772   0.928018 -10.711928   0.379464 -14.876847   0.118416   0.849325   1.441624   6.516126  -0.416023   0.750734  -1.389653   0.877169   0.002043   0.001132  -1.324800  -0.007771   0.129675  -0.325799  -0.000751  -0.000446   0.186543  -0.833265   1.112772   2.823292  -0.005765  -0.003035  -3.310236   0.786982   0.604302   0.329090  -0.000825   0.000032
 -2.376257   0.927348   3.977829  -0.262194   0.125536   0.006854  -0.866917  -0.391799  -0.399714   0.735688  -0.714832   0.587572  -0.346892   0.513922  -0.199649   1.454951  -2.112813   5.239037   2.891896   0.299307  14.624159   0.499388  18.651556  -0.088350   1.064172  -1.492708  -7.577091   1.101907   2.017981  -4.886044   4.852485   0.914725 -13.632196   0.465943 -18.644938   0.132194   1.042337   1.323713   6.661725  -0.584470   0.911469  -1.940074   1.043949   0.002467   0.001133  -1.605555  -0.012188   0.155037  -0.411488  -0.001004  -0.000488   0.378681  -1.004044   1.592757   3.490966  -0.007395  -0.003138  -4.005835   0.950766   0.738701   0.375378  -0.000902   0.000027
 -2.376113   0.926285   3.978204  -0.320717   0.148606  -0.012457  -1.049361  -0.492045  -0.435286   0.828675  -0.864119   0.723896  -0.415035   0.596267  -0.236891   1.734481  -2.353735   6.989880   3.373676   0.518552  17.819394   0.563529  22.105901  -0.089777   1.249832  -1.356390  -7.485739   1.320058   2.226109  -6.516159   5.661116   0.834575 -16.480066   0.537175 -22.416795   0.143539   1.218905   1.186810   6.507608  -0.773616   1.063033  -2.538991   1.188195   0.002764   0.001092  -1.868423  -0.017381   0.178008  -0.494266  -0.001233  -0.000516   0.600851  -1.160724   2.117302   4.128779  -0.008785  -0.003025  -4.655445   1.102832   0.866474   0.415056  -0.000940   0.000026
 -2.375823   0.923865   3.978268  -0.287409   0.127671  -0.081650  -1.172381  -0.552227  -0.326096   0.844677  -0.975518   0.830202  -0.600848   0.592081  -0.309339   2.059519  -2.611132   8.194535   4.109291   0.717303  20.650638   0.608202  25.880902  -0.104201   1.390173  -1.312650  -6.402209   1.749717   2.427842  -7.565886   6.452123   0.596863 -19.384173   0.582891 -26.223225   0.162819   1.388883   0.881565   5.691021  -1.133882   1.030869  -3.053328   1.488218   0.003757   0.000646  -1.888111  -0.057758   0.399931  -0.490691  -0.000975  -0.000416   0.833541  -1.138162   2.649140   4.118218  -0.006984  -0.002427  -4.969913   1.356711   1.025817   0.534266  -0.001391   0.000278
 -2.375490   0.920276   3.978107  -0.237799   0.147487  -0.147534  -1.245208  -0.624638  -0.201229   0.874605  -1.091088   0.929192  -0.782362   0.585535  -0.367853   2.364568  -2.850734   9.114020   4.784534   0.930102  23.149761   0.627156  29.666478  -0.116269   1.544761  -1.205413  -5.424029   2.152907   2.599869  -8.402017   7.179241   0.336000 -22.001265   0.607064 -30.037843   0.179391   1.562021   0.531067   4.906450  -1.489333   0.990384  -3.532507   1.779547   0.004403   0.000365  -1.901564  -0.098126   0.606715  -0.460280  -0.000689  -0.000351   0.989927  -1.110836   3.140376   4.007963  -0.005180  -0.002020  -5.267745   1.594533   1.176573   0.650445  -0.001685   0.000507
 -2.375141   0.920233   3.978277  -0.280308  -0.033797  -0.092110  -1.281541  -0.605035  -0.172483   0.947698  -1.130502   0.984672  -0.936422   0.581553  -0.420163   2.639010  -3.032225  10.132528   5.396331   1.179675  25.498416   0.632874  33.221408  -0.122115   1.711411  -1.064079  -4.673251   2.539345   2.772980  -9.362333   7.853077   0.078470 -24.474616   0.628966 -33.821358   0.193080   1.724884   0.304620   4.301518  -1.775435   0.850596  -3.660145   2.297400   0.003844  -0.001307  -1.540637  -0.238675   1.001419  -0.360621  -0.000818  -0.000710   1.056952  -1.101793   3.056053   4.034340  -0.004142  -0.001654  -5.220980   1.761714   1.100433   0.521946  -0.001464   0.000409
 -2.374853   0.920287   3.978561  -0.294339  -0.150873  -0.060561  -1.333598  -0.617921  -0.111547   1.007959  -1.179587   1.028685  -1.081861   0.575856  -0.467483   2.904000  -3.201516  10.930249   5.964952   1.442026  27.646604   0.618219  36.559783  -0.124333   1.872390  -0.844104  -3.909428   2.913123   2.929289 -10.139733   8.484027  -0.194790 -26.760938   0.637321 -37.592896   0.204145   1.876090   0.037818   3.626214  -1.969064   0.798282  -3.733976   2.672662   0.003202  -0.001677  -1.476578  -0.274699   1.194100  -0.282567  -0.000753  -0.000722   1.102511  -1.059262   2.995610   4.062910  -0.003308  -0.001341  -5.351122   1.980881   1.205449   0.667787  -0.001263   0.000518
 -2.374630   0.920341   3.978875  -0.279409  -0.240385  -0.028578  -1.387115  -0.637639  -0.053580   1.051379  -1.234551   1.064661  -1.218755   0.570843  -0.509786   3.144573  -3.354026  11.579592   6.480538   1.705330  29.586562   0.589650  39.681777  -0.123368   2.030998  -0.596103  -3.270640   3.250479   3.056533 -10.789267   9.053829  -0.484171 -28.842724   0.628216 -41.130595   0.209828   2.030736  -0.333317   3.037754  -2.145669   0.761527  -3.801081   2.977445   0.002643  -0.001729  -1.447348  -0.301963   1.365291  -0.234889  -0.000658  -0.000648   1.129876  -1.017206   2.941064   4.064803  -0.002646  -0.001073  -5.492243   2.185340   1.308679   0.794463  -0.001092   0.000594
